<svg width="104" height="41" viewBox="0 0 104 41" fill="none" xmlns="http://www.w3.org/2000/svg">
<path d="M73.3875 14.9082H70.3115V19.7456C70.3115 19.9078 70.3752 20.0635 70.4886 20.1782C70.602 20.2929 70.7558 20.3574 70.9162 20.3574H72.7829C72.8623 20.3574 72.9409 20.3415 73.0143 20.3108C73.0876 20.2801 73.1543 20.235 73.2104 20.1782C73.2666 20.1214 73.3111 20.0539 73.3415 19.9797C73.3719 19.9055 73.3875 19.8259 73.3875 19.7456V14.9082Z" fill="#0FDAC2"/>
<path d="M69.3153 25.7574C68.6503 26.4396 67.7767 26.7807 66.6947 26.7806C65.707 26.7806 64.9285 26.4924 64.3591 25.916C63.8679 25.419 63.5888 24.7361 63.522 23.8672H61.0671C60.9837 23.867 60.9012 23.8842 60.8248 23.9177C60.7484 23.9513 60.6796 24.0005 60.6228 24.0622C60.5661 24.1239 60.5225 24.1969 60.495 24.2764C60.4674 24.356 60.4564 24.4405 60.4626 24.5245C60.586 26.0067 61.0778 27.2006 61.938 28.1062C62.9443 29.1629 64.264 29.6912 65.8971 29.691C67.9098 29.691 69.3815 28.9513 70.3123 27.472V29.3165H73.3883V24.479C73.3883 24.3986 73.3726 24.3191 73.3423 24.2449C73.3119 24.1706 73.2673 24.1032 73.2112 24.0464C73.155 23.9896 73.0884 23.9445 73.015 23.9138C72.9416 23.883 72.863 23.8672 72.7836 23.8672H70.6834C70.5513 23.8679 70.4231 23.9122 70.3182 23.9935C70.2133 24.0747 70.1376 24.1884 70.1025 24.3173C69.9656 24.8573 69.6947 25.353 69.3153 25.7574Z" fill="#0FDAC2"/>
<path d="M63.504 14.9082H60.4277V19.7456C60.4277 19.9078 60.4914 20.0635 60.6048 20.1782C60.7182 20.2929 60.8721 20.3574 61.0324 20.3574H63.504V14.9082Z" fill="#0FDAC2"/>
<path d="M94.3718 18.7463C94.3718 19.2384 94.6443 19.6266 95.1894 19.9111C95.8197 20.2303 96.4765 20.4927 97.1523 20.6954C97.9159 20.9337 98.6981 21.1777 99.499 21.4273C100.292 21.6714 100.993 22.1551 101.506 22.8134C102.043 23.4883 102.312 24.3392 102.312 25.3664C102.312 26.7999 101.766 27.9249 100.674 28.7413C99.5815 29.5579 98.2088 29.9661 96.5558 29.9657C95.0997 29.9657 93.8501 29.6571 92.807 29.04C91.906 28.5208 91.173 27.7485 90.6967 26.8166C90.6492 26.7272 90.6377 26.6226 90.6646 26.5247C90.6915 26.4269 90.7547 26.3433 90.841 26.2915L92.9034 25.0798C92.9492 25.0531 93 25.0363 93.0526 25.0304C93.1052 25.0245 93.1584 25.0297 93.209 25.0456C93.2595 25.0615 93.3062 25.0878 93.3462 25.1228C93.3862 25.1579 93.4186 25.2009 93.4414 25.2492C94.0044 26.4225 95.0425 27.0091 96.5558 27.009C98.2283 27.009 99.0648 26.4514 99.0652 25.336C99.0652 24.8586 98.7945 24.4704 98.2532 24.1716C97.6288 23.8383 96.9733 23.5687 96.2962 23.3667C95.5331 23.1284 94.7509 22.8844 93.9495 22.6347C93.1629 22.3954 92.463 21.9278 91.9365 21.2899C91.3949 20.6431 91.1243 19.8218 91.1245 18.8262C91.1058 18.1891 91.2365 17.5565 91.5059 16.9803C91.7753 16.4042 92.1757 15.9007 92.6744 15.5113C93.7076 14.6751 94.9916 14.257 96.5266 14.2569C97.6662 14.2365 98.7911 14.5198 99.7883 15.0784C100.603 15.5387 101.289 16.2005 101.782 17.002C101.81 17.047 101.83 17.0973 101.838 17.1499C101.847 17.2026 101.845 17.2564 101.832 17.3083C101.819 17.3601 101.797 17.4088 101.765 17.4514C101.733 17.4939 101.693 17.5295 101.647 17.556L99.6444 18.6916C99.557 18.7408 99.4541 18.7536 99.3575 18.7271C99.261 18.7007 99.1785 18.6371 99.1277 18.5499C98.5921 17.6389 97.725 17.1834 96.5266 17.1835C95.9877 17.1648 95.4549 17.303 94.9915 17.5819C94.7943 17.7017 94.6327 17.8731 94.5236 18.078C94.4145 18.2829 94.3621 18.5138 94.3718 18.7463Z" fill="#0FDAC2"/>
<path d="M12.6348 12.0293C12.6348 12.0293 5.98709 18.0799 9.04462 20.034C9.04462 20.034 6.97958 21.583 5.48957 21.4004C4.0668 21.2261 2.17714 19.2057 4.93931 16.3038C7.76574 13.3343 12.6348 12.0293 12.6348 12.0293Z" fill="#0FDAC2"/>
<path d="M1.84171 30.7395C1.62987 30.8263 8.51511 27.9905 7.23806 21.9634C7.23806 21.9634 7.9995 20.6173 9.59427 20.7861C11.2686 20.9634 14.0368 23.4385 10.5524 26.8685C7.16305 30.205 1.84171 30.7395 1.84171 30.7395Z" fill="#0FDAC2"/>
<path d="M16.563 13.5931L16.5131 13.6499V14.9068H13.8926V17.9039H16.5131V24.8199C16.5131 26.7031 17.0258 27.9952 18.0513 28.6961C19.0766 29.3971 20.7666 29.6036 23.1213 29.3156V26.5202C22.4716 26.5581 21.8204 26.5629 21.1702 26.5346C20.6477 26.5058 20.2537 26.3618 19.9882 26.1024C19.722 25.8429 19.5891 25.4154 19.5894 24.8199V17.9039H23.1213V14.9068H19.5894V11.4785L16.563 13.5931Z" fill="#643BFF"/>
<path d="M44.9246 18.8702C45.8156 18.2218 46.9078 17.92 48.0009 18.0202V14.6484C45.8549 14.6484 44.3927 15.5418 43.6144 17.3286V14.9079H40.5381V19.7453C40.5381 19.9075 40.6018 20.0632 40.7152 20.1779C40.8286 20.2926 40.9824 20.3571 41.1428 20.3571H43.4671C43.5808 20.3573 43.6923 20.3247 43.7884 20.2631C43.8845 20.2016 43.9613 20.1136 44.0098 20.0094C44.2132 19.5566 44.5282 19.1644 44.9246 18.8702Z" fill="#643BFF"/>
<path d="M40.5381 29.3165H43.6144V24.479C43.6144 24.3167 43.5506 24.1611 43.4372 24.0464C43.3238 23.9316 43.17 23.8672 43.0097 23.8672H41.1428C40.9824 23.8672 40.8286 23.9316 40.7152 24.0464C40.6018 24.1611 40.5381 24.3167 40.5381 24.479V29.3165Z" fill="#643BFF"/>
<path d="M55.2702 17.9046H58.8021V14.9075H55.2702V10.873L52.1939 11.7952V14.9075H49.5732V17.9046H52.1939V19.7449C52.1939 19.9071 52.2576 20.0628 52.371 20.1775C52.4844 20.2922 52.6382 20.3567 52.7986 20.3567H54.6655C54.8259 20.3567 54.9797 20.2922 55.0931 20.1775C55.2065 20.0628 55.2702 19.9071 55.2702 19.7449L55.2702 17.9046Z" fill="#643BFF"/>
<path d="M52.1934 24.8209C52.1934 26.7041 52.706 27.9961 53.7314 28.697C54.7567 29.3981 56.4468 29.6046 58.8015 29.3165V26.5212C58.1518 26.559 57.5005 26.5638 56.8503 26.5356C56.3278 26.5068 55.9338 26.3627 55.6684 26.1033C55.4021 25.8439 55.2692 25.4164 55.2697 24.8209V24.479C55.2697 24.3167 55.206 24.1611 55.0926 24.0464C54.9792 23.9316 54.8253 23.8672 54.665 23.8672H52.7981C52.6377 23.8672 52.4839 23.9316 52.3705 24.0464C52.2571 24.1611 52.1934 24.3167 52.1934 24.479V24.8209Z" fill="#643BFF"/>
<path d="M30.9917 17.5015C32.2828 17.5015 33.3558 17.9386 34.2105 18.8128C34.5331 19.1869 34.8118 19.5976 35.0408 20.0366C35.0924 20.1338 35.1691 20.2149 35.2627 20.2714C35.3564 20.3278 35.4634 20.3575 35.5724 20.3571H37.9637C38.0431 20.3571 38.1217 20.3412 38.1951 20.3105C38.2684 20.2797 38.3351 20.2347 38.3913 20.1779C38.4474 20.1211 38.4919 20.0536 38.5223 19.9794C38.5527 19.9052 38.5684 19.8256 38.5684 19.7453V14.9079H35.4921V16.9539C34.3337 15.3401 32.6722 14.5332 30.5074 14.5332C28.5516 14.5332 26.8805 15.2633 25.4944 16.7234C24.108 18.1835 23.4149 19.9798 23.415 22.1122C23.415 24.2259 24.1082 26.0174 25.4944 27.4869C26.8802 28.9564 28.5513 29.6911 30.5074 29.6911C32.6723 29.6911 34.3338 28.8747 35.4921 27.2418V29.3167H38.5684V24.4792C38.5684 24.3988 38.5527 24.3193 38.5223 24.245C38.4919 24.1708 38.4474 24.1034 38.3912 24.0466C38.3351 23.9898 38.2684 23.9447 38.1951 23.914C38.1217 23.8832 38.0431 23.8674 37.9637 23.8674H35.6196C35.5103 23.8669 35.4029 23.8967 35.3091 23.9534C35.2153 24.0102 35.1386 24.0918 35.0872 24.1894C34.8557 24.6381 34.5603 25.05 34.2105 25.4119C33.7909 25.8412 33.2889 26.1791 32.7353 26.4046C32.1817 26.6301 31.5883 26.7385 30.9917 26.7231C29.7001 26.7231 28.6272 26.286 27.773 25.4119C26.9185 24.5378 26.4913 23.4379 26.4913 22.1122C26.4913 20.7866 26.9185 19.6868 27.773 18.8128C28.6277 17.9387 29.7006 17.5016 30.9917 17.5015Z" fill="#643BFF"/>
<path d="M25.3282 0.933615C25.3282 0.933615 21.2176 0.881629 15.245 5.95105C15.245 5.95105 13.6013 4.83234 12.0528 6.00205C10.5042 7.17176 9.92383 7.61024 9.92383 7.61024C10.9225 7.48211 11.9365 7.55964 12.9049 7.83816L12.2597 8.76088C12.1383 8.93445 12.0743 9.14246 12.077 9.35507C12.0797 9.56768 12.1489 9.77396 12.2746 9.94434L12.6772 10.4899L13.0798 11.0354C13.2056 11.2058 13.3814 11.3315 13.5821 11.3946C13.7828 11.4576 13.9981 11.4547 14.1971 11.3862L15.2548 11.0226C15.2437 12.041 15.029 13.0466 14.6239 13.979C14.6239 13.979 15.2043 13.5406 16.7527 12.3708C18.3013 11.2011 17.7081 9.2888 17.7081 9.2888C24.2095 4.93573 25.3282 0.933615 25.3282 0.933615ZM20.4745 6.08172C20.2886 6.22221 20.0656 6.30375 19.8338 6.31603C19.602 6.3283 19.3718 6.27076 19.1723 6.15068C18.9728 6.0306 18.813 5.85337 18.7131 5.64141C18.6132 5.42945 18.5777 5.19227 18.611 4.95987C18.6443 4.72747 18.745 4.51029 18.9003 4.33578C19.0557 4.16128 19.2586 4.03729 19.4836 3.9795C19.7086 3.92171 19.9454 3.93271 20.1642 4.01111C20.383 4.08952 20.5739 4.2318 20.7128 4.41997C20.805 4.54491 20.872 4.687 20.9099 4.83812C20.9478 4.98925 20.956 5.14646 20.9338 5.30077C20.9117 5.45507 20.8598 5.60346 20.781 5.73746C20.7022 5.87145 20.598 5.98844 20.4745 6.08172Z" fill="#643BFF"/>
<path d="M10.6985 27.8798C15.1652 24.5715 15.5351 20.9073 11.5804 20.1001C8.60058 19.4918 5.60852 19.6305 5.70437 18.4013C5.81553 16.9752 11.1344 13.0958 12.7635 11.9391C12.633 11.8712 12.5191 11.7747 12.4299 11.6568L12.0231 11.1144L11.6163 10.5721C11.5083 10.427 11.4415 10.2549 11.4228 10.0742C9.99152 10.9788 2.67534 15.7463 2.33397 18.8885C2.1672 20.4244 2.91464 21.2016 6.8496 21.9536C9.88995 22.5345 11.3341 22.9506 10.9325 24.2557C10.1805 26.6991 1.68848 30.8151 1.68848 30.8151C1.68848 30.8151 6.4639 31.0163 10.6985 27.8798Z" fill="#643BFF"/>
<path d="M85.3875 21.8839C85.0642 21.8064 84.7377 21.7386 84.4207 21.6398C84.113 21.5577 83.8307 21.3985 83.5998 21.1769C83.369 20.9554 83.197 20.6786 83.0998 20.372C82.9883 20.0315 82.9151 19.6781 82.8249 19.3305C82.819 19.3078 82.8165 19.2842 82.8124 19.261C82.8105 19.2198 82.7927 19.1811 82.7628 19.1532C82.7329 19.1252 82.6934 19.1102 82.6527 19.1114C82.557 19.1111 82.5139 19.1741 82.4937 19.2623C82.4238 19.5668 82.3652 19.8749 82.2775 20.1742C82.1633 20.6468 81.8853 21.0622 81.494 21.345C81.1873 21.5421 80.8484 21.6827 80.4932 21.7602C80.3872 21.7866 80.2798 21.8069 80.1728 21.829H33.6041C33.358 21.7719 33.1117 21.7148 32.871 21.6398C32.5633 21.5577 32.2811 21.3985 32.0502 21.1769C31.8194 20.9554 31.6474 20.6786 31.5501 20.372C31.4386 20.0315 31.3654 19.6781 31.2753 19.3305C31.2694 19.3077 31.2669 19.2842 31.2628 19.261C31.2608 19.2198 31.243 19.1811 31.2131 19.1531C31.1833 19.1252 31.1437 19.1102 31.103 19.1114C31.0073 19.1111 30.9643 19.1741 30.944 19.2623C30.8741 19.5668 30.8156 19.8749 30.7279 20.1742C30.6137 20.6468 30.3357 21.0622 29.9443 21.345C29.6376 21.5421 29.2987 21.6827 28.9435 21.7602C28.7466 21.8093 28.547 21.847 28.3482 21.8881C28.3077 21.8907 28.2697 21.9087 28.2419 21.9386C28.2141 21.9685 28.1985 22.0079 28.1984 22.049C28.1968 22.0902 28.2113 22.1303 28.2387 22.1608C28.2661 22.1912 28.3043 22.2096 28.3449 22.2118C28.3646 22.2156 28.3846 22.2176 28.4039 22.2226C28.7447 22.3118 29.0911 22.384 29.4249 22.4949C29.8691 22.6251 30.2449 22.9268 30.4712 23.3348C30.5882 23.5571 30.684 23.7902 30.7572 24.031C30.8375 24.2901 30.8836 24.5602 30.9415 24.8262C30.9612 24.9171 30.9981 24.9841 31.0997 24.991C31.1937 24.9932 31.2413 24.9329 31.2715 24.8049C31.3491 24.4747 31.4177 24.1412 31.5173 23.8177C31.5967 23.5181 31.7481 23.243 31.9578 23.0168C32.1676 22.7907 32.4294 22.6204 32.7198 22.5211C33.0117 22.4194 33.314 22.348 33.6151 22.2735H80.1576C80.4318 22.3413 80.7071 22.4061 80.9745 22.4949C81.4187 22.6251 81.7945 22.9268 82.0208 23.3348C82.1379 23.5571 82.2336 23.7902 82.3068 24.031C82.3871 24.2901 82.4333 24.5602 82.4911 24.8262C82.5109 24.9172 82.5477 24.9841 82.6494 24.9911C82.7433 24.9932 82.791 24.9329 82.8211 24.8049C82.8988 24.4747 82.9673 24.1412 83.0669 23.8177C83.1464 23.5181 83.2977 23.243 83.5075 23.0169C83.7173 22.7907 83.979 22.6204 84.2695 22.5211C84.6357 22.3936 85.0184 22.3139 85.3945 22.2157C85.5057 22.1866 85.5619 22.1356 85.5598 22.0468C85.5578 21.9588 85.4984 21.9105 85.3875 21.8839Z" fill="#643BFF"/>
<path d="M88.1511 16.7378C86.7648 15.268 85.0937 14.5331 83.1381 14.5332C80.9733 14.5332 79.3117 15.3497 78.1534 16.9826V14.9079H75.0771V19.7453C75.0771 19.9075 75.1409 20.0631 75.2543 20.1779C75.3677 20.2926 75.5215 20.3571 75.6818 20.3571H78.0386C78.1763 20.3565 78.3107 20.3139 78.424 20.2347C78.5373 20.1555 78.6243 20.0434 78.6735 19.9133C78.7058 19.8273 78.7439 19.7436 78.7875 19.6629C78.9682 19.3538 79.1857 19.0683 79.4352 18.8128C80.2896 17.9387 81.3624 17.5016 82.6538 17.5015C83.9449 17.5015 85.0178 17.9386 85.8724 18.8128C86.727 19.6871 87.1543 20.7869 87.1542 22.1122C87.1542 23.4377 86.7269 24.5376 85.8724 25.4119C85.018 26.2864 83.9452 26.7235 82.6538 26.7231C81.3622 26.7231 80.2893 26.286 79.4352 25.4119C79.1759 25.1464 78.9511 24.8484 78.7665 24.5251C78.7307 24.4541 78.6988 24.3811 78.6708 24.3066C78.6214 24.1772 78.5345 24.066 78.4215 23.9876C78.3084 23.9092 78.1745 23.8672 78.0375 23.8673L75.7571 23.8674C75.6678 23.8674 75.5795 23.8852 75.497 23.9197C75.4146 23.9543 75.3397 24.0049 75.2766 24.0687C75.2135 24.1326 75.1635 24.2084 75.1293 24.2918C75.0952 24.3752 75.0776 24.4646 75.0776 24.5548L75.0772 37.8069C75.2636 37.5826 75.4942 37.4 75.7543 37.2709C76.0144 37.1418 76.2982 37.0689 76.5877 37.057C76.8771 37.0451 77.1659 37.0943 77.4355 37.2016C77.705 37.3089 77.9496 37.4719 78.1534 37.6801V27.2705C79.3115 28.8843 80.9731 29.6912 83.1381 29.6911C85.0937 29.6911 86.7648 28.9612 88.1511 27.5013C89.537 26.0413 90.2301 24.245 90.2305 22.1122C90.2305 19.999 89.5374 18.2076 88.1511 16.7378Z" fill="#0FDAC2"/>
<path d="M76.6661 40.0675C76.4488 40.0641 76.2413 39.9753 76.0876 39.8198C75.9339 39.6643 75.8461 39.4544 75.8428 39.2345C75.8422 39.1244 75.8636 39.0154 75.9057 38.9139C75.9477 38.8124 76.0096 38.7205 76.0876 38.6438C76.1614 38.5634 76.251 38.4993 76.3506 38.4557C76.4502 38.4122 76.5576 38.39 76.6661 38.3907C76.7762 38.3893 76.8855 38.4111 76.9868 38.4547C77.0882 38.4982 77.1795 38.5626 77.255 38.6438C77.333 38.7206 77.3949 38.8124 77.437 38.9139C77.4791 39.0154 77.5006 39.1244 77.5001 39.2345C77.5009 39.3438 77.4796 39.4521 77.4374 39.5528C77.3953 39.6535 77.3332 39.7443 77.255 39.8198C77.1788 39.8996 77.0872 39.9627 76.9859 40.0054C76.8846 40.048 76.7758 40.0691 76.6661 40.0675Z" fill="white"/>
<path d="M89.1131 33.7412C89.0596 33.7375 89.0402 33.7023 89.0298 33.6544C88.9994 33.5144 88.9751 33.3723 88.9328 33.2359C88.8943 33.1092 88.8439 32.9865 88.7823 32.8695C88.6632 32.6547 88.4654 32.4959 88.2316 32.4274C88.0559 32.369 87.8736 32.331 87.6942 32.2841C87.684 32.2814 87.6735 32.2804 87.6632 32.2784C87.6418 32.2772 87.6217 32.2676 87.6072 32.2515C87.5928 32.2355 87.5852 32.2144 87.586 32.1927C87.5861 32.1711 87.5943 32.1503 87.6089 32.1346C87.6236 32.1189 87.6436 32.1094 87.6649 32.108C87.7695 32.0864 87.8746 32.0665 87.9782 32.0407C88.1652 31.9999 88.3435 31.9259 88.505 31.8221C88.711 31.6733 88.8573 31.4547 88.9174 31.2059C88.9636 31.0484 88.9944 30.8862 89.0312 30.7259C89.0418 30.6795 89.0645 30.6464 89.1149 30.6465C89.1363 30.6459 89.1571 30.6538 89.1728 30.6685C89.1885 30.6832 89.1979 30.7036 89.1989 30.7252C89.2011 30.7374 89.2024 30.7499 89.2055 30.7618C89.2529 30.9448 89.2915 31.1308 89.3502 31.31C89.4014 31.4714 89.4919 31.6171 89.6134 31.7337C89.7349 31.8503 89.8835 31.9341 90.0454 31.9773C90.2123 32.0293 90.3841 32.065 90.5543 32.1058C90.6126 32.1198 90.6439 32.1452 90.645 32.1916C90.6461 32.2383 90.6165 32.2652 90.558 32.2804C90.36 32.3321 90.1586 32.3741 89.9658 32.4412C89.813 32.4935 89.6752 32.5831 89.5648 32.7021C89.4544 32.8212 89.3747 32.966 89.3329 33.1236C89.2805 33.2939 89.2444 33.4695 89.2035 33.6432C89.1876 33.7106 89.1626 33.7423 89.1131 33.7412Z" fill="#643BFF"/>
<path d="M20.0025 39.7205L19.5296 38.3657H16.4732L16.027 39.7205H14.4434L17.0474 32.1934H18.8649L21.4895 39.7205H20.0025ZM16.951 36.9784H19.0451L17.9714 33.9031L16.951 36.9784Z" fill="white"/>
<path d="M26.2 32.1943C26.6776 32.1829 27.1522 32.2737 27.5927 32.4609C28.0333 32.6481 28.4297 32.9273 28.7561 33.2803C29.4159 34.0123 29.7816 34.9672 29.7816 35.9579C29.7816 36.9486 29.4159 37.9035 28.7561 38.6355C28.4297 38.9885 28.0333 39.2677 27.5927 39.4549C27.1522 39.642 26.6776 39.7329 26.2 39.7215H23.2451V32.1943H26.2ZM26.2 38.302C26.4928 38.3128 26.7845 38.2604 27.0557 38.1483C27.327 38.0361 27.5715 37.8668 27.773 37.6516C28.1645 37.1761 28.3789 36.5768 28.3789 35.9579C28.3789 35.339 28.1645 34.7397 27.773 34.2642C27.5715 34.049 27.327 33.8797 27.0557 33.7675C26.7845 33.6554 26.4928 33.603 26.2 33.6138H24.7121V38.302L26.2 38.302Z" fill="white"/>
<path d="M33.3668 39.7205L30.8691 32.1934H32.4634L34.2827 37.9804L36.0878 32.1934H37.6929L35.1843 39.7205H33.3668Z" fill="white"/>
<path d="M39.4385 32.1934H40.9054V39.7205H39.4385V32.1934Z" fill="white"/>
<path d="M45.7433 39.8719C45.0882 39.8945 44.4411 39.7205 43.8834 39.372C43.3896 39.0506 43.0155 38.572 42.8203 38.0117L44.0746 37.2696C44.3651 38.0368 44.9355 38.4203 45.7858 38.4202C46.1966 38.4202 46.4977 38.3449 46.6892 38.1943C46.7833 38.1245 46.8587 38.032 46.9087 37.9252C46.9586 37.8185 46.9814 37.7008 46.9751 37.5829C46.9688 37.465 46.9335 37.3505 46.8725 37.2498C46.8115 37.1491 46.7266 37.0654 46.6256 37.0063C46.2287 36.7948 45.8074 36.6341 45.3713 36.5278C45.0841 36.444 44.802 36.3434 44.5263 36.2265C44.2821 36.1183 44.0504 35.9831 43.8356 35.8234C43.6087 35.6595 43.4275 35.4391 43.3093 35.1837C43.1835 34.8999 43.1219 34.5914 43.1287 34.2804C43.1167 33.9714 43.1752 33.6637 43.2996 33.3812C43.424 33.0987 43.611 32.8489 43.8462 32.6513C44.3303 32.244 44.944 32.0282 45.5734 32.0438C46.1347 32.0321 46.6871 32.1873 47.1621 32.49C47.6259 32.795 47.9959 33.2253 48.2304 33.7321L46.9973 34.4524C46.6998 33.8072 46.2252 33.4846 45.5734 33.4847C45.3175 33.4697 45.0643 33.5437 44.8556 33.6944C44.7729 33.7575 44.7061 33.8397 44.6609 33.934C44.6156 34.0284 44.5932 34.1323 44.5954 34.2372C44.5935 34.35 44.6192 34.4616 44.6702 34.562C44.7212 34.6624 44.7959 34.7485 44.8878 34.8125C45.2358 35.0279 45.6137 35.1892 46.009 35.291C46.2357 35.3627 46.4074 35.4183 46.5244 35.4578C46.6413 35.4973 46.8008 35.5583 47.0028 35.6407C47.1653 35.7034 47.3218 35.7807 47.4706 35.8719C47.6022 35.9605 47.7282 36.0574 47.8478 36.1621C47.976 36.2683 48.0855 36.3955 48.1719 36.5385C48.3515 36.8638 48.445 37.2305 48.4431 37.6031C48.4552 37.9192 48.3937 38.2338 48.2635 38.5214C48.1333 38.8091 47.9381 39.0617 47.6935 39.2589C47.1939 39.6678 46.5439 39.8721 45.7433 39.8719Z" fill="white"/>
<path d="M56.6409 38.7367C56.0044 39.3897 55.1636 39.799 54.262 39.8945C53.3605 39.99 52.4541 39.7658 51.6977 39.2604C50.9414 38.7549 50.3819 37.9994 50.1149 37.1229C49.848 36.2465 49.8901 35.3035 50.234 34.4549C50.5779 33.6064 51.2024 32.905 52.0007 32.4705C52.799 32.036 53.7217 31.8954 54.6111 32.0728C55.5005 32.2501 56.3014 32.7343 56.8771 33.4427C57.4528 34.1511 57.7676 35.0398 57.7676 35.9569C57.7774 36.4735 57.6824 36.9867 57.4886 37.4648C57.2948 37.9428 57.0063 38.3757 56.6409 38.7367ZM52.1876 37.7258C52.6486 38.171 53.2614 38.4194 53.8987 38.4194C54.5361 38.4194 55.1489 38.171 55.6099 37.7258C56.0539 37.2453 56.301 36.6121 56.301 35.9543C56.301 35.2965 56.0539 34.6632 55.6099 34.1827C55.1505 33.7344 54.537 33.4839 53.8987 33.4839C53.2604 33.4839 52.647 33.7344 52.1876 34.1827C51.7437 34.6633 51.4968 35.2965 51.4968 35.9543C51.4968 36.612 51.7437 37.2452 52.1876 37.7258Z" fill="white"/>
<path d="M63.9136 39.7205L62.4097 37.1075H61.299V39.7205H59.832V32.1934H62.8081C63.1328 32.1921 63.4545 32.2557 63.7548 32.3805C64.0551 32.5053 64.3281 32.6889 64.5582 32.9206C64.7883 33.1524 64.9709 33.4278 65.0955 33.7311C65.2201 34.0344 65.2844 34.3597 65.2845 34.6881C65.2856 35.1503 65.1486 35.6019 64.8913 35.9838C64.635 36.3766 64.274 36.6879 63.85 36.8816L65.4972 39.7205H63.9136ZM61.299 33.5804V35.8063H62.8081C62.9432 35.807 63.0769 35.7781 63.1998 35.7215C63.3228 35.6648 63.4322 35.5819 63.5204 35.4783C63.7171 35.2639 63.8238 34.9806 63.8179 34.6881C63.8244 34.3971 63.7175 34.1152 63.5204 33.9031C63.4314 33.8009 63.3217 33.7192 63.1989 33.6635C63.076 33.6078 62.9427 33.5795 62.8081 33.5804H61.299Z" fill="white"/>
<path d="M73.067 32.1934L70.516 36.785V39.7205H69.0599V36.7853L66.5195 32.1934H68.1777L69.7898 35.3272L71.4088 32.1934H73.067Z" fill="white"/>
<path d="M85.859 39.7205L85.386 38.3657H82.3297L81.8834 39.7205H80.2998L82.9038 32.1934H84.7213L87.3459 39.7205H85.859ZM82.8075 36.9784H84.9016L83.8279 33.9031L82.8075 36.9784Z" fill="white"/>
<path d="M88.4297 39.7204V34.3438H89.8006V39.7204H88.4297Z" fill="white"/>
</svg>
